<?xml version="1.0" standalone="no"?>
<!DOCTYPE svg PUBLIC "-//W3C//DTD SVG 20010904//EN"
 "http://www.w3.org/TR/2001/REC-SVG-20010904/DTD/svg10.dtd">
<svg version="1.0" xmlns="http://www.w3.org/2000/svg"
 width="200.000000pt" height="200.000000pt" viewBox="0 0 200.000000 200.000000"
 preserveAspectRatio="xMidYMid meet">
<metadata>
Created by potrace 1.11, written by Peter Selinger 2001-2013
</metadata>
<g transform="translate(0.000000,200.000000) scale(0.100000,-0.100000)"
fill="#000000" stroke="none">
<path d="M811 1945 c-126 -28 -305 -98 -332 -131 -6 -8 -18 -14 -25 -14 -8 0
-14 -4 -14 -8 0 -10 -89 -32 -130 -32 -23 0 -28 -5 -30 -27 -5 -69 -2 -343 5
-383 46 -293 129 -483 287 -655 58 -64 62 -71 64 -120 2 -60 15 -89 58 -128
l31 -28 -65 28 c-95 39 -112 52 -104 76 23 73 9 146 -40 201 l-26 29 -16 -39
c-23 -54 -14 -110 27 -170 27 -41 47 -57 102 -83 67 -32 82 -44 50 -40 -56 5
-76 -3 -126 -50 -29 -27 -49 -52 -45 -56 14 -14 87 -17 123 -5 21 7 57 31 79
54 l41 41 65 -22 c51 -17 58 -22 35 -23 -44 0 -91 -33 -125 -87 -27 -42 -29
-48 -13 -54 26 -9 104 9 127 29 20 16 42 41 77 85 13 16 22 19 52 13 34 -6 36
-9 22 -22 -22 -23 -18 -80 12 -167 31 -89 36 -89 74 12 22 60 27 127 10 144
-17 17 -13 24 22 36 29 11 34 9 49 -11 51 -68 64 -82 94 -94 42 -18 104 -18
104 -1 0 13 -35 73 -53 92 -17 17 -77 36 -91 28 -7 -4 -8 -3 -1 4 6 6 30 18
53 27 l44 17 37 -39 c49 -50 89 -66 146 -58 25 4 45 10 45 13 0 3 -11 21 -26
40 -30 40 -76 65 -112 62 -15 -2 -32 0 -39 4 -6 4 -18 4 -26 1 -9 -3 2 13 24
36 39 41 41 48 43 127 1 36 9 49 57 100 150 158 244 369 285 638 8 52 13 340
7 385 -5 36 -5 36 -74 47 -47 7 -83 20 -112 39 -48 33 -152 84 -171 84 -6 0
-16 4 -22 9 -5 4 -47 19 -94 31 -106 29 -337 37 -439 15z m451 -1431 c-4 -22
-7 -53 -7 -70 2 -31 1 -32 -74 -54 -42 -12 -88 -25 -102 -30 -43 -13 -135 -5
-239 23 -90 25 -91 26 -86 62 3 18 1 46 -3 63 -5 17 -7 32 -5 35 3 2 33 -11
69 -30 35 -18 92 -44 127 -57 68 -24 61 -25 163 19 113 50 144 65 150 76 13
19 16 2 7 -37z"/>
<path d="M1499 732 c-34 -36 -51 -72 -55 -119 -5 -61 8 -108 28 -108 9 0 24
-8 35 -16 53 -47 119 -61 178 -39 32 12 32 27 -2 54 -40 31 -75 44 -108 39
-17 -3 -40 -5 -52 -5 -13 0 -23 -4 -23 -9 0 -5 -5 -9 -11 -9 -5 0 4 20 21 44
34 47 43 98 28 154 -10 36 -16 38 -39 14z"/>
<path d="M1665 693 c-39 -20 -75 -53 -75 -68 0 -7 -10 -25 -22 -41 -12 -16
-16 -24 -8 -18 8 6 31 14 50 18 46 8 86 42 105 89 14 34 14 37 -2 37 -10 -1
-31 -8 -48 -17z"/>
<path d="M285 663 c8 -21 27 -48 42 -60 24 -20 90 -40 99 -30 2 2 -2 19 -10
38 -22 52 -57 77 -119 86 l-28 4 16 -38z"/>
<path d="M470 540 c21 -19 22 -22 5 -17 -72 22 -113 13 -173 -38 l-34 -28 26
-14 c53 -28 147 -10 210 41 21 17 17 28 -27 56 l-32 22 25 -22z"/>
<path d="M1385 470 c-33 -17 -54 -30 -47 -30 14 0 112 48 112 55 0 7 3 8 -65
-25z"/>
</g>
</svg>
